<?xml version="1.0" encoding="utf-8"?>
<!-- Generator: Adobe Illustrator 22.0.1, SVG Export Plug-In . SVG Version: 6.00 Build 0)  -->
<svg version="1.1" id="Layer_1" xmlns="http://www.w3.org/2000/svg" xmlns:xlink="http://www.w3.org/1999/xlink" x="0px" y="0px"
	 viewBox="0 0 1000 1000" style="enable-background:new 0 0 1000 1000;" xml:space="preserve">
<style type="text/css">
	.st0{fill:#767676;}
</style>
<g>
	<path class="st0" d="M700,75c-100.3,0-163.6,48.8-200.4,93c-36.7-44.1-100.1-93-200.4-93C128.5,75,13.8,233.2,13.8,381
		c0,215.1,413.2,503.4,460.3,535.6c7.7,5.3,16.7,7.9,25.6,7.9c8.9,0,17.9-2.6,25.6-7.9c47.1-32.2,460.3-320.5,460.3-535.6
		C985.6,233.2,870.8,75,700,75z M499.7,823.7C336.9,708,104.6,500.8,104.6,381c0-90.2,67.7-215.2,194.7-215.2
		c115.6,0,156.4,99.8,157.9,103.8c6.6,17.5,23.4,29,42.2,29.2c0.1,0,0.2,0,0.3,0c18.6,0,35.4-11.5,42.3-28.9
		c1.7-4.3,42.5-104.1,158-104.1c127.1,0,194.7,125,194.7,215.2C894.8,500.7,662.4,707.9,499.7,823.7z"/>
</g>
</svg>
